<svg xmlns="http://www.w3.org/2000/svg" viewBox="0 0 680 680">
  <rect x="0" y="0" width="680" height="680" rx="80" fill="#F5E4B0"/>
  <circle cx="340" cy="340" r="248" stroke="#C28A55" stroke-width="6" fill="none"/>
  <polygon points="340,100 360,340 340,580" fill="#D9B570"/>
  <polygon points="340,100 320,340 340,580" fill="#ECD493"/>
  <polygon points="100,340 340,320 580,340" fill="#ECD493"/>
  <polygon points="100,340 340,360 580,340" fill="#D9B570"/>
  <circle cx="340" cy="340" r="128" fill="#F0BA2C"/>
  <path d="M 92 502 L 160 430 L 210 376 L 240 310 L 272 366 L 296 286 L 308 268 L 372 268 L 384 286 L 408 366 L 440 310 L 470 376 L 520 430 L 588 502 Z" fill="#0F3D2A"/>
  <rect x="92" y="498" width="496" height="14" fill="#DE6E2C"/>
</svg>
