<svg xmlns="http://www.w3.org/2000/svg" viewBox="0 0 80 80" fill="none">
  <rect width="80" height="80" rx="16" fill="#042F2E"/>
  <g stroke="#FEF3C7" fill="none" stroke-linecap="round">
    <path d="M 18 28 Q 18 18, 32 18 L 52 18 Q 66 18, 66 32 L 66 42 Q 66 54, 52 54 L 36 54" stroke-width="4"/>
    <path d="M 24 32 Q 24 24, 32 24 L 50 24 Q 58 24, 58 32 L 58 40 Q 58 48, 50 48 L 36 48" stroke-width="2.8" opacity="0.7"/>
    <path d="M 28 36 Q 28 32, 34 32 L 46 32 Q 52 32, 52 36 L 52 38 Q 52 42, 46 42 L 36 42" stroke-width="2" opacity="0.5"/>
  </g>
  <rect x="18" y="50" width="5" height="18" rx="2.5" fill="#FEF3C7"/>
  <g transform="translate(60, 62)">
    <path d="M 0 -8 L 2 -2 L 8 0 L 2 2 L 0 8 L -2 2 L -8 0 L -2 -2 Z" fill="#5EEAD4"/>
  </g>
</svg>