<svg xmlns="http://www.w3.org/2000/svg" viewBox="0 0 800 600" preserveAspectRatio="xMidYMid slice">
  <defs>
    <linearGradient id="skyC" x1="0%" y1="0%" x2="0%" y2="100%">
      <stop offset="0%" stop-color="#1E1B4B"/>
      <stop offset="50%" stop-color="#7C3AED"/>
      <stop offset="100%" stop-color="#F472B6"/>
    </linearGradient>
  </defs>
  <rect width="800" height="600" fill="url(#skyC)"/>
  <!-- Stars -->
  <g fill="#FFFFFF">
    <circle cx="100" cy="60" r="1.5"/>
    <circle cx="250" cy="40" r="1"/>
    <circle cx="400" cy="80" r="1.5"/>
    <circle cx="550" cy="50" r="1"/>
    <circle cx="700" cy="70" r="1.2"/>
    <circle cx="180" cy="120" r="1"/>
    <circle cx="650" cy="130" r="1.3"/>
  </g>
  <!-- Moon -->
  <circle cx="650" cy="120" r="40" fill="#FEF3C7" opacity="0.95"/>
  <circle cx="640" cy="115" r="35" fill="url(#skyC)"/>
  <!-- City skyline -->
  <g fill="#0F172A">
    <rect x="0" y="380" width="60" height="220"/>
    <rect x="60" y="320" width="80" height="280"/>
    <rect x="140" y="350" width="50" height="250"/>
    <rect x="190" y="280" width="100" height="320"/>
    <rect x="290" y="340" width="70" height="260"/>
    <rect x="360" y="260" width="120" height="340"/>
    <rect x="480" y="310" width="80" height="290"/>
    <rect x="560" y="270" width="100" height="330"/>
    <rect x="660" y="340" width="70" height="260"/>
    <rect x="730" y="380" width="70" height="220"/>
  </g>
  <!-- Building windows -->
  <g fill="#FCD34D" opacity="0.9">
    <rect x="75" y="340" width="6" height="6"/>
    <rect x="90" y="340" width="6" height="6"/>
    <rect x="110" y="360" width="6" height="6"/>
    <rect x="75" y="380" width="6" height="6"/>
    <rect x="100" y="400" width="6" height="6"/>
    <rect x="120" y="380" width="6" height="6"/>
    <rect x="210" y="300" width="6" height="6"/>
    <rect x="230" y="320" width="6" height="6"/>
    <rect x="250" y="300" width="6" height="6"/>
    <rect x="270" y="340" width="6" height="6"/>
    <rect x="220" y="370" width="6" height="6"/>
    <rect x="250" y="400" width="6" height="6"/>
    <rect x="380" y="280" width="6" height="6"/>
    <rect x="400" y="300" width="6" height="6"/>
    <rect x="420" y="280" width="6" height="6"/>
    <rect x="450" y="320" width="6" height="6"/>
    <rect x="400" y="360" width="6" height="6"/>
    <rect x="430" y="380" width="6" height="6"/>
    <rect x="580" y="290" width="6" height="6"/>
    <rect x="600" y="310" width="6" height="6"/>
    <rect x="620" y="290" width="6" height="6"/>
    <rect x="640" y="330" width="6" height="6"/>
    <rect x="600" y="370" width="6" height="6"/>
  </g>
</svg>